<?xml version="1.0" standalone="no"?>
<!DOCTYPE svg PUBLIC "-//W3C//DTD SVG 20010904//EN"
 "http://www.w3.org/TR/2001/REC-SVG-20010904/DTD/svg10.dtd">
<svg version="1.0" xmlns="http://www.w3.org/2000/svg"
 width="388.000000pt" height="377.000000pt" viewBox="0 0 388.000000 377.000000"
 preserveAspectRatio="xMidYMid meet">

<g transform="translate(0.000000,377.000000) scale(0.100000,-0.100000)"
fill="#000000" stroke="none">
<path d="M1795 3144 c-433 -24 -803 -149 -874 -297 -21 -43 -21 -53 -21 -895
0 -694 3 -859 14 -885 63 -151 412 -280 826 -305 170 -10 502 2 630 23 291 46
518 142 588 248 l27 41 3 864 2 865 -21 44 c-48 99 -237 195 -484 247 -177 37
-498 60 -690 50z m505 -240 c183 -27 354 -78 433 -130 l37 -24 0 -213 0 -213
-52 -22 c-154 -62 -288 -93 -515 -117 -178 -19 -334 -19 -519 0 -224 24 -398
65 -524 124 l-35 16 -3 212 -2 211 27 20 c70 49 247 106 413 132 200 32 536
33 740 4z m-1105 -845 c212 -71 430 -100 755 -100 308 0 536 31 754 102 33 10
61 19 63 19 1 0 3 -81 3 -179 l0 -180 -82 -31 c-209 -81 -414 -112 -738 -113
-307 0 -483 23 -680 90 -41 14 -91 33 -110 42 l-35 16 -3 178 c-1 97 1 177 5
177 5 0 35 -10 68 -21z m44 -613 c249 -69 410 -89 706 -89 324 0 536 31 808
120 16 5 17 -7 17 -164 l0 -169 -28 -16 c-15 -9 -61 -30 -102 -46 -308 -122
-837 -146 -1210 -55 -166 40 -304 101 -314 137 -8 29 -8 280 0 301 4 9 13 14
22 10 8 -3 54 -16 101 -29z"/>
</g>
</svg>
