<?xml version="1.0" standalone="no"?>
<!DOCTYPE svg PUBLIC "-//W3C//DTD SVG 20010904//EN"
 "http://www.w3.org/TR/2001/REC-SVG-20010904/DTD/svg10.dtd">
<svg version="1.0" xmlns="http://www.w3.org/2000/svg"
 width="463.000000pt" height="403.000000pt" viewBox="0 0 463.000000 403.000000"
 preserveAspectRatio="xMidYMid meet">

<g transform="translate(0.000000,403.000000) scale(0.100000,-0.100000)"
fill="#000000" stroke="none">
<path d="M2545 3195 c-22 -8 -49 -26 -61 -40 -18 -23 -143 -444 -340 -1145
-18 -63 -91 -320 -163 -572 -72 -251 -131 -468 -131 -482 0 -37 35 -103 62
-117 65 -35 148 -26 191 19 22 23 51 101 84 227 3 11 17 58 30 105 14 47 38
131 54 188 16 56 43 149 59 207 17 58 44 152 60 210 17 58 43 151 59 208 16
56 88 309 161 562 72 253 132 477 131 498 0 101 -99 167 -196 132z"/>
<path d="M1405 2665 c-44 -23 -563 -544 -586 -587 -23 -45 -24 -89 -4 -132 9
-18 143 -159 298 -313 243 -242 287 -282 319 -288 85 -16 159 24 179 97 23 85
17 93 -229 341 l-226 227 226 228 c193 194 227 232 232 264 9 52 -8 109 -44
143 -37 35 -117 45 -165 20z"/>
<path d="M3046 2661 c-45 -30 -66 -70 -66 -127 0 -70 17 -91 253 -318 108
-104 197 -197 197 -206 0 -9 -93 -106 -207 -216 -113 -109 -215 -212 -225
-229 -25 -41 -24 -118 2 -160 36 -58 115 -80 183 -51 18 8 161 144 320 303
l287 289 0 64 0 64 -287 289 c-159 159 -300 295 -315 303 -38 20 -107 18 -142
-5z"/>
</g>
</svg>
