<?xml version="1.0" standalone="no"?>
<!DOCTYPE svg PUBLIC "-//W3C//DTD SVG 20010904//EN"
 "http://www.w3.org/TR/2001/REC-SVG-20010904/DTD/svg10.dtd">
<svg version="1.0" xmlns="http://www.w3.org/2000/svg"
 width="424.000000pt" height="402.000000pt" viewBox="0 0 424.000000 402.000000"
 preserveAspectRatio="xMidYMid meet">

<g transform="translate(0.000000,402.000000) scale(0.100000,-0.100000)"
fill="#000000" stroke="none">
<path d="M1107 3229 c-87 -21 -163 -82 -208 -169 l-24 -45 -3 -730 c-3 -809
-5 -783 63 -877 25 -34 52 -55 102 -80 l68 -33 442 -3 c244 -2 443 -6 443 -9
0 -4 -10 -37 -22 -75 l-22 -68 -175 0 c-195 0 -242 -11 -278 -66 -24 -37 -24
-130 0 -167 38 -59 17 -57 727 -57 385 0 657 3 668 9 79 43 101 163 40 228
-42 45 -56 48 -252 53 l-189 5 -22 70 -23 70 446 5 447 5 57 28 c32 16 75 48
97 73 74 84 71 50 71 873 l0 736 -28 60 c-32 67 -82 116 -151 148 l-46 22
-1095 2 c-619 1 -1111 -3 -1133 -8z m2163 -814 l0 -525 -1052 2 -1053 3 -3
510 c-1 281 0 516 3 523 3 9 224 12 1055 12 l1050 0 0 -525z"/>
</g>
</svg>
