<?xml version="1.0" standalone="no"?>
<!DOCTYPE svg PUBLIC "-//W3C//DTD SVG 20010904//EN"
 "http://www.w3.org/TR/2001/REC-SVG-20010904/DTD/svg10.dtd">
<svg version="1.0" xmlns="http://www.w3.org/2000/svg"
 width="234.000000pt" height="68.000000pt" viewBox="0 0 234.000000 68.000000"
 preserveAspectRatio="xMidYMid meet">

<g transform="translate(0.000000,68.000000) scale(0.100000,-0.100000)"
fill="#000000" stroke="none">
<path d="M488 511 c-30 -10 -202 -102 -233 -125 -14 -10 -25 -39 -36 -95 l-16
-81 56 31 c174 99 270 149 284 149 8 0 29 -11 45 -25 l29 -24 51 27 c29 15 52
31 52 35 0 19 -37 60 -75 82 -46 28 -116 39 -157 26z"/>
<path d="M1050 460 c-41 -41 -14 -130 39 -130 23 0 69 36 59 46 -5 4 -17 -1
-27 -10 -11 -10 -28 -16 -38 -14 -25 5 -39 51 -25 83 13 29 37 32 64 8 10 -9
21 -13 26 -9 10 10 -36 46 -59 46 -10 0 -28 -9 -39 -20z"/>
<path d="M1202 457 c-44 -46 -12 -127 49 -127 60 0 91 86 46 128 -30 28 -68
28 -95 -1z m82 -13 c32 -32 10 -94 -34 -94 -26 0 -50 27 -50 55 0 28 24 55 50
55 10 0 26 -7 34 -16z"/>
<path d="M1350 406 c0 -44 4 -76 10 -76 6 0 10 26 10 58 l0 57 33 -54 c47 -79
57 -77 57 13 0 44 -4 76 -10 76 -6 0 -10 -26 -10 -57 l0 -58 -33 54 c-47 79
-57 77 -57 -13z"/>
<path d="M1510 418 c-13 -35 -25 -69 -27 -75 -3 -7 0 -13 5 -13 6 0 14 9 17
20 5 15 15 20 40 20 25 0 35 -5 40 -20 3 -11 11 -20 17 -20 5 0 8 6 5 13 -2 6
-14 40 -27 75 -12 34 -28 62 -35 62 -7 0 -23 -28 -35 -62z m48 5 c10 -31 10
-33 -13 -33 -22 0 -23 2 -12 35 6 19 11 34 12 32 1 -1 7 -17 13 -34z"/>
<path d="M1640 405 l0 -75 40 0 c22 0 40 5 40 10 0 6 -13 10 -30 10 l-30 0 0
65 c0 37 -4 65 -10 65 -6 0 -10 -32 -10 -75z"/>
<path d="M1760 405 l0 -75 50 0 c28 0 50 5 50 10 0 6 -18 10 -40 10 -36 0 -40
3 -40 25 0 22 4 25 35 25 19 0 35 5 35 10 0 6 -16 10 -35 10 -28 0 -35 4 -35
20 0 17 7 20 40 20 22 0 40 5 40 10 0 6 -22 10 -50 10 l-50 0 0 -75z"/>
<path d="M1900 405 c0 -43 4 -75 10 -75 6 0 10 14 10 30 0 26 4 30 28 30 33 0
52 16 52 45 0 31 -19 45 -62 45 l-38 0 0 -75z m75 30 c0 -14 -8 -21 -27 -23
-24 -3 -28 0 -28 23 0 23 4 26 28 23 19 -2 27 -9 27 -23z"/>
<path d="M721 344 c-165 -93 -196 -101 -236 -64 l-22 20 -46 -26 c-26 -14 -49
-30 -52 -35 -10 -15 26 -59 69 -84 91 -52 139 -45 301 48 l109 62 17 83 c9 45
16 82 15 82 -1 0 -70 -39 -155 -86z"/>
<path d="M1031 213 c1 -21 3 -30 6 -20 2 9 11 17 19 17 8 0 14 9 14 20 0 13
-7 20 -20 20 -17 0 -20 -6 -19 -37z m29 17 c0 -5 -4 -10 -10 -10 -5 0 -10 5
-10 10 0 6 5 10 10 10 6 0 10 -4 10 -10z"/>
<path d="M1102 218 c-2 -34 1 -38 21 -37 15 1 17 3 5 6 -10 2 -18 17 -21 36
-4 31 -4 31 -5 -5z"/>
<path d="M1176 242 c-3 -5 -10 -22 -16 -37 -10 -25 -9 -27 5 -15 13 11 21 11
35 2 17 -11 18 -9 8 18 -11 33 -24 45 -32 32z m18 -17 c3 -9 0 -15 -9 -15 -9
0 -12 6 -9 15 4 8 7 15 9 15 2 0 5 -7 9 -15z"/>
<path d="M1232 215 c0 -27 2 -32 5 -16 l5 25 19 -25 19 -24 -2 40 c0 27 -2 32
-5 16 l-5 -25 -19 25 -19 24 2 -40z"/>
<path d="M1307 242 c6 -4 13 -21 16 -37 l4 -30 2 32 c0 17 7 34 14 36 6 3 -1
6 -18 6 -16 0 -25 -3 -18 -7z"/>
<path d="M1370 215 c0 -32 2 -35 28 -34 23 2 24 2 5 6 -13 2 -23 8 -23 13 0 5
10 11 23 13 l22 4 -22 2 c-13 0 -23 5 -23 10 0 5 10 12 23 14 19 4 18 4 -5 6
-26 1 -28 -2 -28 -34z"/>
<path d="M1442 218 c-2 -34 1 -38 21 -37 15 1 17 3 5 6 -10 2 -18 17 -21 36
-4 31 -4 31 -5 -5z"/>
<path d="M1556 242 c-3 -5 -10 -22 -16 -37 -10 -25 -9 -27 5 -15 13 11 21 11
35 2 17 -11 18 -9 8 18 -11 33 -24 45 -32 32z m18 -17 c3 -9 0 -15 -9 -15 -9
0 -12 6 -9 15 4 8 7 15 9 15 2 0 5 -7 9 -15z"/>
<path d="M1611 213 c1 -21 3 -30 6 -20 2 9 11 17 19 17 8 0 14 9 14 20 0 13
-7 20 -20 20 -17 0 -20 -6 -19 -37z m29 17 c0 -5 -4 -10 -10 -10 -5 0 -10 5
-10 10 0 6 5 10 10 10 6 0 10 -4 10 -10z"/>
<path d="M1686 242 c-3 -5 -10 -22 -16 -37 -10 -25 -9 -27 5 -15 13 11 21 11
35 2 17 -11 18 -9 8 18 -11 33 -24 45 -32 32z m18 -17 c3 -9 0 -15 -9 -15 -9
0 -12 6 -9 15 4 8 7 15 9 15 2 0 5 -7 9 -15z"/>
<path d="M1727 242 c6 -4 13 -21 16 -37 l4 -30 2 32 c0 17 7 34 14 36 6 3 -1
6 -18 6 -16 0 -25 -3 -18 -7z"/>
<path d="M1798 241 l24 -6 -21 -19 c-29 -27 -26 -36 12 -35 31 2 31 2 3 6
l-28 5 28 29 28 29 -35 -1 c-28 -1 -30 -2 -11 -8z"/>
<path d="M1863 215 c0 -22 2 -30 4 -17 2 12 2 30 0 40 -3 9 -5 -1 -4 -23z"/>
<path d="M1902 215 c0 -27 2 -32 5 -16 l5 25 19 -25 19 -24 -2 40 c0 27 -2 32
-5 16 l-5 -25 -19 25 -19 24 2 -40z"/>
<path d="M1984 236 c-10 -26 1 -51 21 -51 11 0 21 8 23 18 2 9 -1 17 -7 17 -6
0 -8 -7 -5 -15 4 -9 0 -15 -10 -15 -11 0 -16 9 -16 26 0 21 4 25 20 21 11 -3
18 -1 14 4 -8 14 -34 11 -40 -5z"/>
<path d="M2076 242 c-3 -5 -10 -22 -16 -37 -10 -25 -9 -27 5 -15 13 11 21 11
35 2 17 -11 18 -9 8 18 -11 33 -24 45 -32 32z m18 -17 c3 -9 0 -15 -9 -15 -9
0 -12 6 -9 15 4 8 7 15 9 15 2 0 5 -7 9 -15z"/>
<path d="M2132 215 c0 -27 2 -32 5 -16 l5 25 19 -25 19 -24 -2 40 c0 27 -2 32
-5 16 l-5 -25 -19 25 -19 24 2 -40z"/>
</g>
</svg>
