<?xml version="1.0" standalone="no"?>
<!DOCTYPE svg PUBLIC "-//W3C//DTD SVG 20010904//EN"
 "http://www.w3.org/TR/2001/REC-SVG-20010904/DTD/svg10.dtd">
<svg version="1.0" xmlns="http://www.w3.org/2000/svg"
 width="768.000000pt" height="609.000000pt" viewBox="0 0 768.000000 609.000000"
 preserveAspectRatio="xMidYMid meet">

<g transform="translate(0.000000,609.000000) scale(0.100000,-0.100000)"
fill="#000000" stroke="none">
<path d="M4807 5052 c-23 -25 -21 -78 3 -102 59 -59 152 27 100 93 -26 33 -78
37 -103 9z"/>
<path d="M4262 4518 l3 -72 -35 -7 c-19 -4 -96 -19 -170 -34 -119 -22 -138
-29 -157 -53 -13 -15 -23 -30 -23 -35 0 -4 -12 -26 -26 -48 -14 -23 -23 -43
-21 -46 3 -2 41 3 84 11 91 19 284 46 330 46 30 0 31 -2 38 -50 6 -47 8 -49
28 -39 23 13 338 218 350 229 4 3 -19 17 -50 29 -32 13 -72 29 -89 37 -48 21
-255 104 -260 104 -3 0 -4 -32 -2 -72z"/>
<path d="M2521 4539 c-13 -11 -22 -22 -19 -24 2 -3 15 6 28 20 28 30 24 32 -9
4z"/>
<path d="M2684 4455 c-5 -30 -3 -41 14 -58 20 -19 22 -19 46 -3 25 16 34 49
18 72 -4 6 -21 15 -39 18 -31 7 -32 6 -39 -29z"/>
<path d="M2439 4453 c-13 -16 -12 -17 4 -4 9 7 17 15 17 17 0 8 -8 3 -21 -13z"/>
<path d="M1258 4411 c-48 -38 -47 -123 4 -296 24 -80 29 -92 92 -235 25 -58
46 -109 46 -113 0 -4 -76 -7 -170 -7 l-169 0 -3 63 -3 62 -115 0 -115 0 -3
-62 c-3 -62 -3 -63 -33 -63 l-29 0 2 -767 3 -768 22 -3 c18 -3 22 -11 25 -45
l3 -42 78 -3 77 -3 0 46 0 45 473 0 c428 0 475 2 497 17 25 17 146 118 232
192 l46 41 21 -26 c12 -15 21 -30 21 -34 0 -7 -111 -110 -163 -150 -16 -13
-25 -26 -20 -31 4 -4 42 -8 83 -8 41 -1 118 -1 170 -1 l95 -1 33 -37 c44 -50
65 -90 57 -110 -4 -10 -15 -74 -25 -143 -11 -69 -22 -133 -26 -142 -7 -20 -24
-21 -77 -6 -22 6 -41 8 -43 6 -3 -3 14 -83 37 -178 l42 -172 31 34 c140 156
201 228 195 233 -2 1 -29 12 -59 23 -50 18 -55 23 -54 49 1 35 35 247 40 253
10 12 64 -55 64 -79 0 -48 44 -95 99 -105 23 -4 58 -28 105 -71 189 -175 354
-261 411 -214 25 21 38 79 30 144 -9 79 -63 247 -126 388 -27 62 -49 116 -49
120 0 4 56 8 125 8 l125 0 0 -60 0 -60 115 0 114 0 3 58 3 57 228 3 c125 1
227 -1 227 -5 0 -5 -20 -27 -45 -51 -25 -24 -45 -47 -45 -52 0 -26 23 -13 80
45 36 36 72 65 82 65 27 0 22 -12 -27 -60 -25 -24 -45 -48 -45 -52 0 -21 31
-2 85 52 33 33 67 60 77 60 27 0 22 -12 -27 -60 -25 -24 -45 -48 -45 -52 0
-21 31 -2 85 52 41 41 67 60 84 60 23 0 21 -4 -29 -55 -36 -36 -51 -58 -44
-65 6 -6 31 12 74 55 45 45 72 65 89 65 24 0 22 -3 -22 -48 -46 -46 -59 -72
-36 -72 6 0 39 27 72 60 34 33 69 60 79 60 27 0 22 -9 -27 -52 -44 -39 -58
-68 -32 -68 7 0 39 27 72 60 33 33 67 60 77 60 27 0 22 -10 -28 -61 -27 -28
-43 -52 -39 -59 5 -7 33 14 82 61 56 54 77 69 86 60 8 -8 0 -23 -36 -59 -26
-26 -47 -51 -47 -55 0 -20 32 -1 85 53 41 41 67 60 84 60 24 0 22 -4 -27 -53
-29 -29 -52 -56 -52 -60 0 -20 32 -1 85 53 41 41 67 60 84 60 23 0 21 -4 -29
-55 -45 -45 -51 -55 -36 -61 13 -5 34 10 79 55 34 34 70 61 81 61 17 0 12 -9
-27 -48 -26 -26 -47 -53 -47 -60 0 -25 28 -10 85 48 33 33 67 60 77 60 26 0
23 -5 -27 -56 -25 -24 -45 -49 -45 -54 0 -23 30 -6 85 50 33 33 67 60 77 60
27 0 22 -12 -27 -60 -25 -24 -45 -48 -45 -52 0 -21 31 -2 84 51 57 57 96 81
96 58 0 -6 -21 -33 -47 -59 -31 -32 -44 -51 -37 -58 6 -6 31 12 74 55 45 45
72 65 89 65 24 0 22 -4 -27 -53 -29 -29 -52 -56 -52 -60 0 -21 33 0 86 53 37
38 67 60 82 60 12 0 22 -2 22 -4 0 -3 -21 -25 -47 -49 -35 -33 -45 -49 -39
-62 6 -16 17 -9 75 49 43 42 75 67 86 64 13 -2 7 -13 -30 -51 -33 -33 -45 -52
-41 -64 6 -13 20 -4 74 50 37 37 75 67 85 67 26 0 21 -10 -30 -62 -31 -32 -44
-51 -37 -58 6 -6 31 12 74 55 35 36 72 65 82 65 27 0 22 -10 -29 -62 -31 -32
-44 -51 -37 -58 6 -6 31 12 74 55 45 45 72 65 89 65 24 0 22 -4 -27 -53 -29
-29 -52 -56 -52 -60 0 -20 32 -1 85 53 41 41 67 60 84 60 24 0 22 -4 -27 -53
-47 -48 -56 -67 -29 -67 5 0 37 27 72 61 77 74 118 79 50 6 -25 -26 -45 -52
-45 -57 0 -23 30 -6 85 50 33 33 67 60 77 60 26 0 23 -8 -27 -57 -25 -24 -45
-48 -45 -53 0 -23 30 -6 85 50 33 33 67 60 77 60 27 0 22 -12 -27 -60 -25 -24
-45 -48 -45 -52 0 -21 31 -2 85 52 41 41 67 60 84 60 23 0 21 -4 -29 -55 -36
-36 -51 -58 -44 -65 6 -6 31 12 74 55 45 45 72 65 89 65 24 0 22 -4 -27 -53
-48 -48 -56 -67 -29 -67 5 0 36 27 68 60 37 38 67 60 81 60 20 0 17 -6 -25
-48 -46 -46 -59 -72 -36 -72 6 0 38 27 72 60 34 33 70 60 81 60 19 0 19 0 0
-21 -10 -12 -31 -34 -46 -50 -16 -15 -28 -32 -28 -38 0 -24 27 -8 92 55 52 51
72 64 81 55 8 -8 0 -23 -36 -59 -26 -26 -47 -51 -47 -55 0 -20 32 -1 85 53 33
33 67 60 77 60 27 0 22 -12 -27 -60 -25 -24 -45 -48 -45 -52 0 -21 31 -2 85
52 41 41 67 60 84 60 24 0 22 -4 -27 -53 -29 -29 -52 -56 -52 -60 0 -21 33 0
86 53 40 41 67 60 84 60 22 0 20 -4 -28 -53 -29 -29 -52 -56 -52 -60 0 -23 44
1 95 53 l59 59 75 3 76 3 3 768 2 767 -580 0 c-319 0 -580 4 -580 8 0 4 20 28
45 52 42 41 57 70 36 70 -5 0 -39 -29 -74 -65 -57 -57 -97 -81 -97 -57 0 4 20
28 45 52 45 44 57 70 32 70 -7 0 -42 -29 -77 -65 -59 -59 -90 -79 -90 -57 0 5
21 30 46 56 36 36 44 50 35 59 -8 8 -28 -5 -79 -56 -59 -59 -102 -84 -102 -59
0 4 22 30 50 57 33 33 47 52 40 59 -7 7 -33 -12 -78 -57 -37 -37 -75 -67 -85
-67 -26 0 -21 12 28 60 40 39 57 70 38 70 -3 0 -37 -29 -74 -65 -59 -58 -99
-80 -99 -57 0 4 20 28 45 52 41 41 57 70 37 70 -5 0 -39 -29 -76 -65 -61 -58
-96 -79 -96 -57 0 4 20 28 45 52 44 44 57 70 33 70 -7 0 -42 -30 -77 -65 -57
-58 -91 -79 -91 -57 0 4 21 29 47 55 36 37 44 50 35 59 -10 10 -28 -3 -80 -55
-37 -37 -73 -67 -80 -67 -24 0 -11 26 33 70 30 30 42 47 35 54 -7 7 -32 -12
-78 -57 -59 -59 -102 -84 -102 -59 0 4 22 30 50 57 32 32 46 53 40 59 -6 6
-34 -14 -79 -57 -61 -59 -101 -83 -101 -59 0 4 22 30 50 57 32 32 46 53 40 59
-6 6 -34 -14 -79 -57 -61 -59 -101 -83 -101 -59 0 4 20 28 45 52 44 43 57 70
34 70 -6 0 -41 -29 -77 -65 -58 -58 -92 -79 -92 -58 0 4 21 29 47 55 36 36 44
51 36 59 -9 9 -29 -5 -82 -55 -45 -44 -76 -67 -88 -64 -15 3 -8 14 35 60 79
84 46 87 -38 3 -45 -45 -74 -66 -86 -63 -16 3 -10 13 34 60 78 83 47 87 -37 4
-58 -58 -101 -82 -101 -58 0 4 22 30 50 57 33 33 47 52 40 59 -7 7 -33 -12
-78 -57 -37 -37 -75 -67 -85 -67 -26 0 -21 12 28 60 41 41 57 70 37 70 -4 0
-38 -29 -74 -65 -58 -57 -98 -80 -98 -58 0 4 21 29 47 55 37 38 45 50 35 60
-10 10 -27 -2 -80 -55 -60 -60 -92 -81 -92 -60 0 4 21 29 47 55 36 37 44 51
35 60 -9 9 -29 -5 -89 -63 -43 -41 -86 -83 -96 -94 -18 -20 -18 -20 -6 5 7 14
14 31 15 39 2 8 24 34 51 57 38 35 45 46 35 56 -10 10 -26 -1 -80 -55 -59 -59
-102 -84 -102 -59 0 4 22 30 50 57 32 32 46 53 40 59 -6 6 -34 -14 -79 -57
-61 -59 -101 -83 -101 -59 0 4 20 28 45 52 40 39 57 70 38 70 -3 0 -37 -29
-74 -65 -59 -58 -99 -80 -99 -57 0 4 20 28 45 52 42 41 57 70 36 70 -5 0 -40
-29 -77 -65 -61 -58 -94 -79 -94 -58 0 4 21 29 47 55 37 38 45 50 35 60 -10
10 -27 -2 -81 -56 -53 -52 -74 -67 -87 -62 -16 6 -11 14 34 58 38 36 50 54 42
62 -7 7 -30 -9 -78 -57 -59 -59 -102 -84 -102 -59 0 4 22 30 50 57 33 33 47
52 40 59 -7 7 -33 -12 -78 -57 -37 -37 -75 -67 -85 -67 -26 0 -21 12 28 60 41
40 60 77 36 68 -25 -8 -154 -144 -211 -223 -51 -69 -129 -168 -217 -274 -2 -3
-18 9 -35 26 l-31 31 74 89 c121 144 171 212 163 224 -3 6 15 33 42 60 38 38
46 51 36 61 -10 10 -27 -2 -80 -55 -62 -62 -92 -81 -92 -58 0 4 21 29 47 55
35 36 44 49 35 58 -9 9 -28 -3 -80 -55 -59 -59 -102 -84 -102 -59 0 4 22 30
50 57 33 33 47 52 40 59 -7 7 -33 -12 -78 -57 -59 -59 -102 -84 -102 -59 0 4
22 30 50 57 32 32 46 53 40 59 -6 6 -34 -14 -79 -57 l-69 -67 -69 1 c-144 3
-144 -1 3 129 71 64 167 149 213 189 87 76 81 83 -23 24 -120 -70 -313 -207
-366 -263 -3 -3 -24 -21 -47 -42 l-41 -36 -151 -1 -150 -2 -3 63 -3 63 -115 0
-115 0 -3 -62 -3 -63 -39 0 c-29 0 -40 4 -40 15 0 8 -6 12 -13 9 -8 -3 -26 10
-41 30 -15 20 -58 70 -97 112 -51 54 -69 81 -66 95 16 62 -42 129 -113 129
-29 0 -49 12 -115 71 -197 175 -326 238 -387 190z m292 -262 c24 -11 59 -31
77 -45 28 -21 33 -32 33 -65 0 -74 53 -117 129 -105 39 6 40 5 115 -76 42 -45
76 -85 76 -90 0 -4 -15 -8 -32 -8 -22 0 -62 18 -118 51 -97 59 -216 116 -322
154 -40 14 -78 31 -85 37 -19 15 -17 118 3 146 19 28 63 29 124 1z m57 -249
c100 -53 193 -117 193 -131 0 -5 -67 -9 -150 -9 l-150 0 -19 38 c-22 44 -61
169 -54 176 8 8 85 -23 180 -74z m4051 -237 l-3 -78 -70 0 -70 0 -3 78 -3 77
76 0 76 0 -3 -77z m-1499 18 c-8 -10 -36 -46 -62 -80 l-48 -61 88 -1 c48 -1
125 0 171 1 l83 2 -3 -54 -3 -53 -110 -5 -110 -5 0 -60 0 -60 105 0 105 0 0
-50 0 -50 -107 -3 -108 -3 0 -69 c0 -66 1 -70 23 -71 12 0 65 -1 117 -2 l95
-2 0 -49 0 -48 -180 -2 -180 -1 -3 279 c-2 278 -2 279 -22 261 -33 -30 -34 -9
-2 27 34 37 56 62 114 131 40 47 63 65 37 28z m1836 -159 c21 20 25 32 25 86
0 34 4 62 8 62 4 0 6 -29 4 -64 -3 -52 -1 -64 13 -70 23 -9 35 1 35 30 0 13 5
24 11 24 5 0 9 -10 7 -22 -2 -19 2 -23 22 -23 20 0 25 5 24 23 -1 12 3 22 7
22 5 0 9 -10 9 -22 0 -12 5 -35 10 -52 6 -17 23 -76 39 -131 16 -55 52 -172
80 -260 38 -120 48 -161 38 -167 -6 -5 -37 -7 -67 -6 l-54 3 -14 50 c-29 101
-21 95 -116 95 l-85 0 -23 -72 -23 -73 -54 -3 c-30 -2 -58 1 -63 6 -5 5 10 70
38 158 100 323 98 310 97 434 0 89 1 96 4 32 l4 -83 24 23z m105 107 c0 -42
-15 -36 -18 7 -2 23 1 33 8 29 5 -3 10 -19 10 -36z m60 6 c0 -19 -4 -35 -10
-35 -11 0 -14 53 -3 63 11 12 13 8 13 -28z m60 -61 c0 -52 -3 -93 -7 -91 -8 5
-5 187 3 187 2 0 4 -43 4 -96z m57 -46 c-2 -29 -3 -8 -3 47 0 55 1 79 3 53 2
-26 2 -71 0 -100z m60 0 c-2 -29 -3 -8 -3 47 0 55 1 79 3 53 2 -26 2 -71 0
-100z m66 48 c1 -47 -1 -86 -5 -86 -5 0 -8 41 -8 92 0 115 10 111 13 -6z m66
17 c-1 -99 -2 -96 21 -83 17 9 20 21 20 85 0 43 4 75 10 75 6 0 10 -30 10 -70
0 -53 3 -70 14 -70 26 0 38 28 34 85 -1 30 0 55 5 55 4 0 7 -27 7 -59 0 -62 7
-75 34 -65 12 5 16 22 18 68 l2 61 3 -62 c3 -44 8 -63 19 -67 27 -10 34 3 36
67 l2 62 5 -70 c5 -63 8 -70 29 -73 21 -3 22 0 24 70 l1 73 7 -95 c9 -120 -5
-166 -48 -156 -74 18 -117 17 -149 -3 -62 -39 -34 -81 85 -130 84 -34 104 -49
126 -96 41 -87 3 -184 -89 -226 -75 -35 -285 -21 -285 19 0 26 20 92 28 92 4
0 25 -7 47 -15 60 -21 127 -19 159 6 53 41 23 89 -84 134 -84 35 -116 61 -134
106 -19 46 -15 92 10 141 9 18 14 60 14 123 0 56 4 95 10 95 6 0 9 -32 9 -77z
m366 -13 c0 -49 -3 -90 -7 -90 -5 0 -8 41 -8 90 0 50 3 90 8 90 4 0 7 -40 7
-90z m64 0 c1 -56 -2 -90 -9 -90 -6 0 -10 35 -10 90 0 50 4 90 9 90 5 0 9 -40
10 -90z m58 -47 c-2 -27 -3 -5 -3 47 0 52 1 74 3 48 2 -27 2 -69 0 -95z m60
-5 c-2 -29 -3 -8 -3 47 0 55 1 79 3 53 2 -26 2 -71 0 -100z m-5509 7 c2 -2 0
-26 -4 -54 l-6 -50 -112 -3 -111 -3 -3 -57 c-4 -67 0 -69 99 -64 36 2 78 2 92
-1 25 -5 27 -9 27 -54 l0 -48 -107 -3 -108 -3 -3 -67 -3 -68 117 0 c112 0 118
-1 140 -26 28 -29 29 -34 9 -34 -8 0 -15 -6 -15 -14 0 -26 -22 -30 -150 -27
-147 3 -156 -2 -145 -69 8 -46 -2 -120 -16 -120 -6 0 -9 6 -8 13 1 6 1 47 0
90 -1 75 -2 77 -25 77 -22 0 -25 -5 -31 -53 -4 -29 -4 -70 -1 -90 5 -29 3 -37
-9 -37 -22 0 -22 234 0 256 8 9 14 29 12 47 -2 30 -5 32 -42 35 -87 5 -85 4
-85 87 l0 75 60 0 c41 0 60 4 61 13 0 6 0 61 0 121 0 61 4 115 10 122 7 9 47
13 126 13 64 0 117 2 119 4 4 4 107 -3 112 -8z m1480 0 c77 -27 116 -58 146
-120 75 -155 50 -325 -64 -416 -50 -40 -157 -66 -221 -52 -35 7 -49 6 -49 -1
0 -6 -72 -83 -160 -171 -88 -88 -160 -164 -160 -170 0 -20 -119 -133 -145
-137 -20 -4 -30 1 -47 25 l-21 30 52 46 c91 81 392 375 402 394 8 14 3 26 -22
54 -66 76 -86 155 -69 276 14 103 41 152 104 195 87 58 175 74 254 47z m701
-10 c12 -12 12 -21 1 -60 -11 -40 -16 -46 -34 -41 -119 35 -224 -2 -261 -91
-36 -85 -7 -214 57 -253 54 -33 58 -29 58 61 0 53 4 78 10 74 6 -4 10 -39 9
-81 -2 -80 1 -90 26 -81 12 5 15 25 17 89 l2 83 3 -72 c2 -40 8 -73 13 -73 19
0 40 47 42 95 1 40 2 43 5 15 3 -19 8 -39 13 -44 4 -4 3 -22 -2 -38 -12 -34 6
-56 29 -36 14 11 14 68 1 68 -5 0 -5 12 -2 27 4 15 7 33 7 40 0 17 14 17 20 1
3 -9 14 -4 33 14 l29 27 -3 -119 c-4 -140 -20 -163 -20 -29 0 50 -3 93 -6 96
-3 3 -12 0 -21 -7 -11 -9 -15 -34 -15 -104 0 -130 -1 -131 -137 -131 -105 0
-139 4 -175 19 -10 5 -23 6 -30 4 -7 -3 -18 8 -25 24 -12 28 -48 41 -37 14 3
-8 1 -23 -5 -33 -8 -14 -10 -8 -11 32 0 28 -7 73 -16 100 -23 77 -21 205 6
260 22 46 93 115 145 142 62 33 242 37 274 8z m-1926 -80 c21 -49 43 -94 48
-100 13 -13 22 3 55 95 14 41 31 81 36 88 14 16 148 17 148 1 0 -7 -34 -68
-75 -137 -41 -69 -75 -134 -75 -145 0 -12 34 -77 76 -145 41 -69 73 -131 70
-138 -4 -10 -24 -14 -66 -14 l-60 0 -50 100 c-28 55 -54 100 -59 100 -4 0 -29
-45 -54 -100 l-46 -100 -41 0 -40 0 0 -89 c0 -53 -4 -93 -11 -96 -7 -5 -10 18
-9 72 2 111 2 110 -21 116 l-21 6 24 43 c14 24 51 85 82 137 43 70 56 99 52
117 -4 13 -31 64 -61 113 -82 137 -89 152 -73 162 7 5 40 7 72 6 l60 -2 39
-90z m682 77 c58 -22 84 -49 101 -109 18 -62 11 -113 -22 -165 -33 -52 -93
-80 -181 -86 -87 -6 -88 -8 -78 -123 l7 -78 -41 -7 -41 -7 0 -88 c0 -48 -4
-91 -10 -94 -6 -4 -10 28 -10 88 0 70 -4 98 -14 106 -12 10 -15 62 -16 287
l-1 274 23 10 c36 15 237 9 283 -8z m1466 6 c3 -50 -3 -564 -7 -567 -10 -10
-112 -13 -118 -3 -8 13 -9 559 -1 572 9 15 125 13 126 -2z m738 -7 c21 -21
149 -252 181 -328 12 -29 26 -53 31 -53 4 0 5 88 2 196 l-6 195 58 -3 59 -3
-3 -280 c-1 -154 -6 -284 -10 -288 -5 -4 -35 -7 -67 -5 l-59 3 -102 195 c-56
107 -107 196 -112 198 -7 2 -12 -66 -13 -195 l-3 -198 -50 0 -50 0 -3 287 -2
287 37 4 c79 8 93 7 112 -12z m865 0 c13 -11 12 -18 -1 -57 -13 -39 -18 -45
-37 -39 -168 50 -301 -62 -267 -225 12 -59 32 -92 75 -124 23 -18 42 -21 124
-21 l96 0 9 -35 c8 -30 6 -37 -14 -53 -21 -17 -37 -19 -134 -15 -119 4 -146
13 -211 71 -52 45 -84 118 -84 192 0 156 67 263 197 311 46 17 224 14 247 -5z
m226 -270 c0 -229 -3 -281 -14 -290 -8 -7 -36 -11 -63 -9 l-48 3 -3 288 -2
287 65 0 65 0 0 -279z m-4920 -355 c0 -73 -4 -127 -10 -131 -6 -4 -10 40 -10
124 0 81 4 131 10 131 6 0 10 -48 10 -124z m80 114 c4 -110 -1 -235 -9 -238
-8 -3 -11 37 -11 122 0 77 4 126 10 126 6 0 10 -4 10 -10z m80 -115 c0 -77 -4
-125 -10 -125 -6 0 -10 48 -10 125 0 77 4 125 10 125 6 0 10 -48 10 -125z m89
0 c1 -106 -1 -125 -14 -125 -13 0 -15 20 -15 125 0 101 3 125 14 125 11 0 14
-25 15 -125z m1041 115 c0 -5 -2 -10 -4 -10 -3 0 -8 5 -11 10 -3 6 -1 10 4 10
6 0 11 -4 11 -10z m1126 -37 c-10 -10 -19 5 -10 18 6 11 8 11 12 0 2 -7 1 -15
-2 -18z m-1367 -114 c-1 -97 -13 -133 -21 -65 -6 55 3 176 14 170 5 -3 8 -50
7 -105z m1529 7 c-103 -101 -134 -121 -43 -28 49 50 91 89 94 87 2 -3 -21 -29
-51 -59z m-2090 -38 c-2 -35 -7 -63 -13 -63 -5 0 -11 28 -13 63 -2 51 0 62 13
62 13 0 15 -11 13 -62z m80 0 c-2 -35 -7 -63 -13 -63 -5 0 -11 28 -13 63 -2
51 0 62 13 62 13 0 15 -11 13 -62z m80 0 c-4 -75 -20 -83 -25 -15 -5 53 1 77
17 77 7 0 10 -23 8 -62z m82 3 c0 -33 -4 -63 -10 -66 -5 -3 -10 0 -11 7 -8 97
-7 118 7 118 10 0 14 -15 14 -59z m160 -7 c0 -36 -4 -54 -12 -54 -9 0 -13 16
-11 53 2 69 2 69 13 62 6 -3 10 -31 10 -61z m80 6 c0 -42 -4 -60 -13 -60 -9 0
-12 16 -11 58 2 66 1 62 14 62 6 0 10 -27 10 -60z m240 44 c0 -8 -4 -12 -10
-9 -5 3 -10 10 -10 16 0 5 5 9 10 9 6 0 10 -7 10 -16z m80 -44 c0 -33 -4 -60
-10 -60 -6 0 -10 27 -10 60 0 33 4 60 10 60 6 0 10 -27 10 -60z m-160 -26 c0
-21 -5 -34 -12 -34 -9 0 -13 16 -13 45 -1 35 2 42 12 33 7 -6 13 -26 13 -44z
m4507 -78 c-4 -12 -107 -47 -118 -40 -21 12 -6 32 44 56 47 24 53 25 65 10 7
-9 11 -21 9 -26z m-3260 -54 c-37 -37 -97 -97 -133 -134 -36 -38 -71 -68 -78
-68 -7 0 -53 -36 -102 -79 -49 -43 -91 -77 -94 -74 -3 2 5 12 17 21 78 62 123
108 123 126 0 23 108 136 130 136 8 0 -6 -20 -30 -45 -81 -83 -31 -46 96 70
69 63 129 115 132 115 4 0 -24 -31 -61 -68z m1662 -8 c31 -12 45 -26 62 -61
25 -51 20 -61 -34 -70 -35 -5 -37 -4 -37 20 0 17 -9 32 -25 43 -23 15 -27 15
-49 1 -47 -31 -58 -127 -21 -184 23 -34 75 -29 93 10 10 22 20 27 47 27 44 0
50 -13 28 -57 -32 -64 -133 -94 -201 -59 -75 39 -103 190 -50 272 44 69 110
89 187 58z m1315 -9 c25 -16 56 -71 56 -98 0 -9 -14 -17 -35 -21 -41 -8 -55
-2 -55 24 0 29 -43 54 -69 40 -31 -16 -41 -43 -41 -107 0 -75 19 -105 63 -101
23 2 35 11 45 31 11 23 19 27 53 27 46 0 51 -16 19 -68 -27 -43 -80 -66 -143
-59 -73 7 -115 55 -132 154 -18 109 67 210 167 199 26 -3 58 -12 72 -21z
m-674 -4 c75 -40 106 -181 60 -270 -24 -48 -87 -77 -151 -68 -49 6 -76 28
-100 82 -56 122 14 275 126 275 17 0 46 -8 65 -19z m-1297 -8 c3 -10 13 -51
22 -90 10 -40 21 -73 25 -73 5 0 21 39 37 88 l28 87 63 3 62 3 0 -171 0 -170
-40 0 -40 0 0 111 c0 60 -4 108 -8 105 -5 -3 -24 -53 -42 -111 -34 -104 -35
-106 -64 -103 -27 3 -30 8 -56 93 -43 145 -49 147 -50 18 l0 -113 -35 0 -35 0
0 170 0 170 64 0 c53 0 66 -3 69 -17z m387 -153 l0 -170 -40 0 -40 0 0 170 0
170 40 0 40 0 0 -170z m470 105 l0 -65 50 0 50 0 0 65 0 65 45 0 45 0 0 -170
0 -170 -45 0 -45 0 0 70 0 70 -50 0 -50 0 0 -71 0 -70 -42 3 -43 3 -3 155 c-1
85 0 160 2 167 3 8 22 13 46 13 l40 0 0 -65z m744 56 c5 -8 106 -320 106 -327
0 -2 -20 -4 -45 -4 -42 0 -45 2 -53 33 -8 31 -10 32 -62 32 -53 0 -55 -1 -64
-32 -8 -29 -13 -33 -42 -33 -19 0 -34 5 -34 10 0 16 81 293 91 313 7 12 22 17
54 17 24 0 46 -4 49 -9z m643 -3 c8 -13 102 -307 103 -320 0 -5 -20 -8 -44 -8
-40 0 -44 2 -52 33 -9 31 -11 32 -64 32 -52 0 -54 -1 -62 -32 -8 -29 -12 -33
-44 -33 -35 0 -35 1 -29 33 4 17 17 64 30 102 13 39 28 90 35 114 24 89 25 91
74 91 25 0 48 -6 53 -12z m284 -80 l54 -93 3 93 3 92 35 0 34 0 -2 -167 -3
-168 -35 -3 c-35 -3 -36 -2 -89 93 -30 52 -58 95 -63 95 -4 0 -8 -43 -8 -96
l0 -95 -32 3 -33 3 -3 168 -2 167 44 0 44 0 53 -92z m-2713 35 c-3 -36 -5 -38
-40 -41 -37 -3 -40 0 -40 33 0 42 2 45 43 45 l40 0 -3 -37z m-2868 -28 c0 -24
0 -24 110 -27 65 -2 110 -7 110 -13 0 -6 -45 -11 -110 -13 -102 -2 -110 -4
-110 -22 0 -11 -2 -20 -5 -20 -10 0 -115 54 -115 60 0 8 93 59 108 60 6 0 12
-11 12 -25z m630 -40 c-35 -36 -69 -65 -74 -65 -6 0 19 29 54 65 35 36 69 65
74 65 6 0 -19 -29 -54 -65z m60 0 c-35 -36 -69 -65 -74 -65 -15 0 107 128 124
129 8 0 -15 -28 -50 -64z m58 -2 c-37 -37 -70 -64 -73 -61 -9 8 107 126 125
127 8 1 -15 -29 -52 -66z m112 59 c0 -14 -119 -126 -127 -118 -4 4 19 34 52
66 58 57 75 69 75 52z m60 2 c0 -12 -122 -125 -128 -119 -3 3 21 32 54 65 55
55 74 69 74 54z m50 -2 c0 -12 -112 -122 -124 -122 -5 0 19 29 55 65 67 68 69
70 69 57z m130 4 c0 -3 -4 -8 -10 -11 -5 -3 -10 -1 -10 4 0 6 5 11 10 11 6 0
10 -2 10 -4z m40 -21 c-13 -14 -27 -25 -32 -25 -15 0 26 49 41 50 10 0 7 -8
-9 -25z m190 -40 c-35 -36 -69 -65 -74 -65 -6 0 19 29 54 65 35 36 69 65 74
65 6 0 -19 -29 -54 -65z m60 0 c-35 -36 -69 -65 -74 -65 -6 0 19 29 54 65 35
36 69 65 74 65 6 0 -19 -29 -54 -65z m58 -2 c-37 -37 -70 -64 -74 -60 -9 8
106 123 126 125 8 1 -15 -28 -52 -65z m112 59 c0 -14 -119 -126 -127 -119 -4
4 20 34 53 67 56 57 74 69 74 52z m60 2 c0 -13 -121 -127 -127 -120 -4 4 20
33 52 66 55 55 75 70 75 54z m60 2 c0 -10 -124 -126 -129 -121 -6 6 109 125
121 125 4 0 8 -2 8 -4z m0 -61 c-35 -36 -69 -65 -74 -65 -6 0 19 29 54 65 35
36 69 65 74 65 6 0 -19 -29 -54 -65z m60 0 c-35 -36 -69 -65 -74 -65 -15 0
107 128 124 129 8 0 -15 -28 -50 -64z m110 57 c0 -11 -113 -122 -124 -122 -10
0 105 127 117 129 4 0 7 -3 7 -7z m180 3 c0 -10 -123 -125 -134 -125 -6 0 19
29 54 65 58 58 80 75 80 60z m55 -5 c-11 -17 -116 -115 -128 -119 -7 -2 17 26
53 63 57 58 93 85 75 56z m5 -55 c-35 -36 -69 -65 -74 -65 -6 0 19 29 54 65
35 36 69 65 74 65 6 0 -19 -29 -54 -65z m58 -2 c-37 -37 -70 -64 -73 -61 -9 8
107 126 125 127 8 1 -15 -29 -52 -66z m112 59 c0 -15 -119 -126 -127 -118 -4
4 19 34 52 66 59 57 75 68 75 52z m60 0 c0 -14 -120 -125 -127 -118 -4 4 20
33 52 66 57 57 75 70 75 52z m60 3 c0 -9 -124 -124 -129 -120 -6 6 110 125
121 125 4 0 8 -2 8 -5z m0 -60 c-35 -36 -69 -65 -74 -65 -6 0 19 29 54 65 35
36 69 65 74 65 6 0 -19 -29 -54 -65z m55 -5 c-38 -38 -71 -67 -74 -64 -6 6
120 134 133 134 6 0 -21 -31 -59 -70z m60 0 c-38 -38 -71 -67 -74 -64 -3 2 2
11 10 19 8 9 34 37 59 64 25 27 52 49 60 50 8 0 -17 -30 -55 -69z m-1537 -17
c-26 -26 -50 -44 -53 -41 -7 7 76 88 90 88 5 0 -11 -21 -37 -47z m37 -23 c-16
-16 -31 -28 -34 -25 -2 3 8 19 24 35 16 16 31 28 34 25 2 -3 -8 -19 -24 -35z
m42 -17 c-15 -16 -17 -16 -17 -1 0 9 6 18 13 21 20 7 22 -2 4 -20z m1681 -112
c59 -30 59 -33 -15 -70 -51 -26 -53 -26 -53 -2 0 27 -18 31 -131 31 -138 0
-127 19 14 22 108 3 112 4 115 26 4 27 5 27 70 -7z m-1125 -90 c-24 -21 -40
-41 -36 -44 3 -4 74 -7 157 -7 l152 0 12 -32 c35 -90 62 -180 72 -240 24 -153
-49 -185 -200 -88 -49 31 -50 33 -44 71 8 48 -9 92 -44 115 -19 13 -38 15 -82
11 l-56 -6 -44 44 c-34 34 -44 53 -45 78 0 25 -4 31 -18 29 -9 -2 -25 2 -35 7
-13 8 2 10 58 11 74 0 76 1 130 45 68 54 80 58 23 6z"/>
<path d="M6065 3408 c-15 -43 -52 -204 -48 -210 6 -11 111 -10 117 1 3 5 -3
42 -14 82 -12 41 -23 89 -27 107 -6 32 -20 42 -28 20z"/>
<path d="M2845 3431 c-29 -12 -55 -44 -71 -88 -18 -51 -18 -165 0 -208 18 -42
62 -85 87 -85 16 0 17 3 7 26 -9 20 -9 30 0 45 7 10 13 38 14 61 1 37 2 39 5
11 5 -40 17 -42 40 -6 10 15 37 45 61 66 48 45 51 60 21 117 -32 61 -101 86
-164 61z"/>
<path d="M3017 3174 c-4 -4 -7 -17 -7 -28 1 -19 1 -20 11 -3 11 19 8 43 -4 31z"/>
<path d="M2960 3111 c-14 -28 -13 -41 5 -41 16 0 36 39 28 53 -8 13 -22 8 -33
-12z"/>
<path d="M2916 3061 c-4 -7 -5 -15 -2 -18 9 -9 19 4 14 18 -4 11 -6 11 -12 0z"/>
<path d="M3600 3065 c0 -9 6 -12 15 -9 8 4 15 10 15 15 0 5 -7 9 -15 9 -8 0
-15 -7 -15 -15z"/>
<path d="M2266 3418 c-9 -37 -7 -128 4 -149 13 -23 47 -25 94 -5 55 23 80 78
60 131 -10 24 -58 45 -107 45 -38 0 -46 -3 -51 -22z"/>
<path d="M5405 2575 c-25 -24 -31 -53 -26 -120 5 -68 62 -100 95 -53 25 35 22
152 -4 178 -26 26 -36 25 -65 -5z"/>
<path d="M5731 2503 c-6 -20 -8 -40 -5 -45 7 -11 41 -10 49 2 6 9 -20 80 -29
80 -3 0 -10 -16 -15 -37z"/>
<path d="M6372 2500 c-9 -35 -8 -40 10 -46 32 -10 42 9 27 50 -7 20 -16 36
-20 36 -4 0 -11 -18 -17 -40z"/>
<path d="M2413 4418 c-15 -20 -25 -38 -20 -38 3 0 12 11 21 25 17 26 16 35 -1
13z"/>
<path d="M3575 4280 c-60 -21 -130 -46 -155 -55 -54 -20 -275 -203 -455 -378
l-60 -58 87 60 c177 122 416 242 592 297 l59 19 34 73 c18 40 33 75 33 78 0 9
-28 1 -135 -36z"/>
<path d="M2500 4160 l0 -81 78 3 77 3 3 78 3 77 -81 0 -80 0 0 -80z"/>
<path d="M2276 4193 c-6 -14 -5 -15 5 -6 7 7 10 15 7 18 -3 3 -9 -2 -12 -12z"/>
<path d="M2712 4130 c0 -14 2 -19 5 -12 2 6 2 18 0 25 -3 6 -5 1 -5 -13z"/>
<path d="M6460 3985 l0 -115 120 0 121 0 -3 113 -3 112 -117 3 -118 3 0 -116z"/>
<path d="M2702 4030 c0 -14 2 -19 5 -12 2 6 2 18 0 25 -3 6 -5 1 -5 -13z"/>
<path d="M2157 3955 c-24 -50 -20 -58 4 -12 11 22 19 41 17 43 -3 2 -12 -12
-21 -31z"/>
<path d="M2126 3885 c-9 -26 -7 -32 5 -12 6 10 9 21 6 23 -2 3 -7 -2 -11 -11z"/>
<path d="M2165 2129 c-4 -6 -5 -12 -2 -15 2 -3 7 2 10 11 7 17 1 20 -8 4z"/>
<path d="M1592 2070 c0 -14 2 -19 5 -12 2 6 2 18 0 25 -3 6 -5 1 -5 -13z"/>
<path d="M1582 2015 c0 -16 2 -22 5 -12 2 9 2 23 0 30 -3 6 -5 -1 -5 -18z"/>
<path d="M2102 1985 c-17 -37 -14 -45 4 -12 9 16 14 31 11 33 -2 2 -9 -7 -15
-21z"/>
<path d="M2055 1889 c-4 -6 -5 -12 -2 -15 2 -3 7 2 10 11 7 17 1 20 -8 4z"/>
<path d="M5667 1874 c-4 -4 -7 -41 -7 -81 l0 -74 83 3 82 3 0 75 0 75 -75 3
c-42 1 -79 0 -83 -4z"/>
<path d="M2030 1839 c-7 -11 -10 -23 -7 -25 2 -2 9 7 15 21 14 30 7 33 -8 4z"/>
<path d="M1530 1762 c-27 -22 -22 -60 10 -80 46 -28 93 45 50 80 -12 10 -26
18 -30 18 -4 0 -18 -8 -30 -18z"/>
<path d="M1990 1760 c-6 -11 -8 -20 -6 -20 3 0 10 9 16 20 6 11 8 20 6 20 -3
0 -10 -9 -16 -20z"/>
<path d="M1865 1559 c-4 -6 -5 -12 -2 -15 2 -3 7 2 10 11 7 17 1 20 -8 4z"/>
<path d="M1571 1494 c0 -11 3 -14 6 -6 3 7 2 16 -1 19 -3 4 -6 -2 -5 -13z"/>
<path d="M1814 1488 l-19 -23 23 19 c21 18 27 26 19 26 -2 0 -12 -10 -23 -22z"/>
<path d="M1759 1433 l-24 -28 28 24 c25 23 32 31 24 31 -2 0 -14 -12 -28 -27z"/>
<path d="M1590 1441 c0 -6 4 -13 10 -16 6 -3 7 1 4 9 -7 18 -14 21 -14 7z"/>
<path d="M1653 1383 c9 -2 25 -2 35 0 9 3 1 5 -18 5 -19 0 -27 -2 -17 -5z"/>
</g>
</svg>
