<?xml version="1.0" standalone="no"?>
<!DOCTYPE svg PUBLIC "-//W3C//DTD SVG 20010904//EN"
 "http://www.w3.org/TR/2001/REC-SVG-20010904/DTD/svg10.dtd">
<svg version="1.0" xmlns="http://www.w3.org/2000/svg"
 width="1200.000000pt" height="600.000000pt" viewBox="0 0 1200.000000 600.000000"
 preserveAspectRatio="xMidYMid meet">

<g transform="translate(0.000000,600.000000) scale(0.100000,-0.100000)"
fill="#000000" stroke="none">
<path d="M2883 5939 c-379 -63 -590 -470 -544 -1048 6 -86 14 -167 17 -181 5
-22 1 -27 -33 -39 -77 -27 -279 -133 -377 -198 -124 -81 -294 -249 -349 -343
-104 -180 -117 -392 -34 -573 102 -223 338 -422 687 -578 92 -42 105 -51 103
-71 0 -13 -7 -84 -13 -158 -40 -434 67 -791 285 -957 264 -201 644 -152 1070
136 66 45 132 91 147 103 l28 22 42 -32 c479 -359 890 -445 1181 -246 231 158
346 514 308 951 -7 82 -15 162 -18 179 -4 29 -2 32 44 49 90 34 278 133 373
196 52 35 130 97 173 138 65 63 77 79 77 107 0 47 -8 63 -42 80 -45 23 -74 11
-153 -65 -88 -83 -209 -164 -351 -235 -167 -83 -155 -86 -183 36 -27 118 -103
360 -156 493 -19 49 -35 97 -35 106 0 9 14 49 30 90 47 114 114 320 150 464
18 72 37 134 41 139 11 13 230 -96 339 -169 52 -34 130 -95 173 -134 60 -55
84 -71 108 -71 43 0 79 39 79 87 0 34 -8 45 -73 108 -121 117 -326 245 -520
326 l-79 33 6 40 c37 256 32 481 -15 673 -97 398 -386 604 -754 540 -214 -38
-466 -159 -682 -328 l-61 -48 -65 49 c-337 255 -666 372 -924 329z m194 -170
c96 -13 227 -56 331 -108 67 -34 242 -146 306 -196 18 -14 13 -21 -110 -147
-122 -125 -245 -265 -324 -370 -34 -45 -36 -46 -115 -58 -139 -20 -375 -69
-508 -106 -70 -20 -130 -35 -132 -33 -2 3 -9 71 -15 152 -27 340 37 603 180
748 78 78 159 114 297 128 6 0 47 -4 90 -10z m1743 1 c236 -37 376 -240 412
-595 9 -99 9 -156 0 -271 -7 -80 -14 -150 -17 -155 -3 -4 -25 -1 -48 7 -108
38 -410 105 -627 139 -43 7 -49 12 -135 122 -49 63 -159 186 -243 273 l-152
158 42 35 c175 140 428 261 598 285 90 13 97 13 170 2z m-883 -497 c58 -50
265 -273 298 -319 12 -18 1 -19 -365 -19 -335 0 -377 2 -367 15 59 78 348 380
364 380 3 0 35 -25 70 -57z m358 -523 c80 -9 113 -16 122 -28 7 -10 55 -80
107 -157 124 -186 231 -373 333 -583 l84 -173 -89 -182 c-111 -229 -184 -357
-328 -574 -132 -198 -93 -176 -334 -193 -237 -17 -618 -10 -810 15 -44 6 -47
9 -118 110 -40 57 -116 174 -168 262 -114 187 -295 548 -287 572 15 44 179
370 238 471 36 63 116 190 177 282 l111 166 71 8 c247 25 669 27 891 4z
m-1237 -112 c-71 -106 -206 -336 -274 -472 -36 -70 -69 -124 -74 -120 -24 26
-156 493 -147 518 9 22 429 133 510 135 l28 1 -43 -62z m1750 37 c64 -14 174
-42 245 -62 107 -30 127 -39 127 -55 0 -42 -69 -291 -122 -441 l-31 -88 -82
158 c-92 178 -161 298 -247 426 -70 103 -74 101 110 62z m-2381 -307 c31 -122
88 -298 158 -488 l28 -76 -42 -108 c-58 -147 -106 -295 -146 -451 -18 -71 -37
-131 -42 -132 -14 -5 -262 122 -348 178 -44 29 -123 95 -176 148 -75 76 -104
112 -134 175 -35 70 -40 88 -43 171 -4 76 0 105 17 158 51 152 194 301 416
433 85 50 266 136 273 129 3 -2 20 -64 39 -137z m375 -950 c70 -135 202 -360
282 -480 17 -25 17 -26 -1 -23 -10 3 -65 13 -123 25 -170 33 -400 100 -400
117 0 53 139 523 155 523 2 0 41 -73 87 -162z m2286 -8 c52 -161 100 -355 90
-365 -18 -19 -523 -143 -534 -132 -2 1 26 47 62 102 88 136 179 295 253 444
35 68 66 120 71 115 4 -5 31 -79 58 -164z m-2443 -573 c131 -38 299 -74 457
-99 l139 -23 97 -120 c53 -66 164 -189 247 -273 l149 -154 -24 -19 c-71 -56
-227 -153 -315 -197 -313 -155 -553 -147 -714 23 -136 144 -198 408 -171 734
12 152 15 165 34 158 6 -2 52 -16 101 -30z m2579 -19 c24 -196 16 -410 -20
-558 -25 -103 -86 -223 -144 -284 -160 -169 -407 -178 -713 -25 -94 48 -259
151 -316 199 l-24 20 149 153 c82 83 193 206 247 273 l97 121 137 22 c163 27
310 59 448 100 137 40 131 40 139 -21z m-974 -136 c0 -15 -283 -316 -343 -364
l-37 -30 -57 48 c-52 45 -298 308 -314 336 -6 10 68 13 372 13 208 0 379 -1
379 -3z"/>
<path d="M6062 3989 c-188 -93 -121 -379 88 -379 113 0 200 88 200 202 -1 147
-156 242 -288 177z"/>
<path d="M7466 3449 c-394 -58 -670 -316 -741 -694 -25 -133 -16 -348 19 -468
98 -330 341 -543 690 -603 67 -12 127 -15 226 -11 159 6 256 29 374 87 84 41
196 124 196 146 0 7 -23 66 -51 131 -28 65 -57 133 -65 152 l-14 33 -39 -35
c-53 -48 -119 -85 -204 -114 -97 -33 -264 -43 -354 -20 -190 49 -324 183 -368
368 -19 83 -19 228 0 304 38 147 136 271 261 330 110 52 252 64 384 33 67 -16
207 -83 256 -123 23 -19 45 -32 47 -28 10 15 117 311 117 321 0 33 -174 129
-292 162 -138 37 -309 48 -442 29z"/>
<path d="M8410 3300 l0 -160 223 -2 222 -3 3 -732 2 -733 200 0 200 0 0 735 0
735 225 0 225 0 0 160 0 160 -650 0 -650 0 0 -160z"/>
<path d="M10000 2565 l0 -895 205 0 205 0 -2 893 -3 892 -202 3 -203 2 0 -895z"/>
<path d="M6320 3365 c-23 -27 -191 -135 -282 -181 l-88 -44 0 -735 0 -735 200
0 200 0 0 855 c0 484 -4 855 -9 855 -5 0 -14 -7 -21 -15z"/>
<path d="M9681 925 l-20 -35 24 0 c15 0 31 11 44 29 27 37 26 41 -3 41 -17 0
-30 -10 -45 -35z"/>
<path d="M2454 856 c-68 -30 -86 -106 -36 -148 16 -13 50 -32 75 -42 56 -21
70 -51 37 -78 -28 -23 -37 -23 -85 2 -34 17 -41 18 -54 6 -47 -48 94 -100 168
-62 45 24 65 91 40 137 -6 11 -40 34 -75 49 -35 16 -67 36 -70 45 -16 40 59
61 103 30 20 -14 23 -14 33 4 16 31 13 38 -30 55 -48 19 -65 19 -106 2z"/>
<path d="M3947 856 c-74 -27 -110 -80 -110 -161 0 -104 71 -175 174 -175 174
0 241 235 92 322 -42 25 -110 31 -156 14z m133 -73 c33 -30 47 -82 36 -128
-19 -74 -126 -103 -180 -48 -73 73 -26 203 74 203 29 0 48 -7 70 -27z"/>
<path d="M5115 852 c-22 -11 -50 -30 -61 -43 -49 -55 -55 -148 -13 -215 41
-67 152 -93 229 -54 34 17 38 23 31 43 -10 26 -14 26 -66 3 -32 -15 -46 -16
-75 -7 -51 15 -72 42 -78 99 -5 54 15 104 47 122 29 15 88 12 122 -6 34 -17
34 -17 43 13 15 49 -106 80 -179 45z"/>
<path d="M6209 860 c-46 -14 -78 -41 -100 -86 -27 -58 -23 -136 10 -183 47
-65 148 -90 221 -53 36 18 46 37 31 61 -7 11 -13 10 -35 -4 -38 -25 -99 -24
-133 1 -59 44 -63 149 -6 193 31 25 91 28 133 6 27 -14 30 -14 40 4 15 29 14
30 -32 51 -45 20 -85 24 -129 10z"/>
<path d="M7748 860 c-79 -24 -125 -98 -116 -189 3 -28 14 -62 27 -80 47 -65
148 -90 221 -53 36 18 46 37 31 61 -7 11 -13 10 -35 -4 -15 -10 -44 -18 -64
-19 -106 -2 -159 129 -82 206 33 33 91 38 140 13 28 -14 30 -14 41 7 14 26 -3
42 -61 58 -41 11 -64 11 -102 0z"/>
<path d="M8425 859 c-100 -37 -142 -151 -92 -249 26 -53 89 -90 152 -90 49 0
122 35 149 72 12 18 21 49 24 86 8 106 -52 178 -155 187 -26 3 -61 0 -78 -6z
m128 -70 c57 -44 57 -144 0 -189 -40 -32 -107 -27 -144 9 -24 25 -29 37 -29
78 1 55 17 90 51 109 36 20 92 17 122 -7z"/>
<path d="M9015 859 c-100 -37 -142 -151 -92 -249 54 -108 226 -120 297 -20 53
74 29 204 -45 250 -40 25 -118 34 -160 19z m128 -70 c54 -42 54 -146 0 -189
-40 -32 -107 -28 -144 9 -25 26 -29 37 -29 86 0 49 4 60 29 86 37 37 104 41
144 8z"/>
<path d="M9384 851 c-97 -44 -130 -164 -72 -260 42 -68 155 -91 238 -48 l45
22 3 73 3 72 -71 0 c-68 0 -70 -1 -70 -25 0 -22 4 -25 40 -25 39 0 40 -1 40
-35 0 -32 -3 -35 -41 -45 -81 -22 -149 29 -149 113 0 44 22 92 49 107 31 16
93 12 128 -9 31 -19 31 -19 49 0 18 20 18 21 -6 40 -53 41 -123 48 -186 20z"/>
<path d="M1900 695 l0 -165 35 0 35 0 0 165 0 165 -35 0 -35 0 0 -165z"/>
<path d="M2030 696 l0 -166 30 0 29 0 3 121 3 120 81 -118 c76 -111 83 -118
117 -121 l37 -3 0 165 0 166 -30 0 -30 0 0 -115 c0 -63 -3 -115 -7 -115 -5 1
-42 51 -83 113 -71 107 -77 112 -112 115 l-38 3 0 -165z"/>
<path d="M2620 835 c0 -23 3 -25 50 -25 l50 0 0 -140 0 -140 30 0 30 0 0 140
0 140 45 0 c41 0 45 2 45 25 l0 25 -125 0 -125 0 0 -25z"/>
<path d="M2910 695 l0 -165 30 0 30 0 0 165 0 165 -30 0 -30 0 0 -165z"/>
<path d="M3010 835 c0 -23 4 -25 45 -25 l45 0 0 -140 0 -140 30 0 30 0 0 140
0 140 45 0 c41 0 45 2 45 25 l0 25 -120 0 -120 0 0 -25z"/>
<path d="M3290 733 c0 -109 3 -133 19 -159 36 -59 155 -72 207 -23 34 32 44
78 44 202 l0 107 -35 0 -35 0 0 -123 c0 -144 -8 -161 -76 -155 -54 4 -64 28
-64 166 l0 112 -30 0 -30 0 0 -127z"/>
<path d="M3590 835 c0 -23 4 -25 45 -25 l45 0 0 -140 0 -140 35 0 35 0 0 140
0 140 45 0 c41 0 45 2 45 25 l0 25 -125 0 -125 0 0 -25z"/>
<path d="M4330 696 l0 -166 86 0 c108 0 153 21 185 87 26 53 22 130 -8 171
-42 56 -68 67 -169 70 l-94 4 0 -166z m170 99 c38 -20 52 -46 52 -101 0 -76
-40 -114 -118 -114 l-34 0 0 115 0 115 35 0 c20 0 49 -7 65 -15z"/>
<path d="M4670 695 l0 -165 105 0 105 0 0 25 c0 24 -2 25 -75 25 l-75 0 0 45
0 45 70 0 70 0 0 30 0 30 -70 0 -70 0 0 40 0 40 75 0 c73 0 75 1 75 25 l0 25
-105 0 -105 0 0 -165z"/>
<path d="M5350 695 l0 -165 30 0 30 0 0 165 0 165 -30 0 -30 0 0 -165z"/>
<path d="M5480 695 l0 -165 105 0 105 0 0 25 c0 24 -2 25 -75 25 l-75 0 0 45
0 45 70 0 70 0 0 30 0 30 -70 0 -70 0 0 40 0 40 75 0 c73 0 75 1 75 25 l0 25
-105 0 -105 0 0 -165z"/>
<path d="M5740 695 l0 -165 35 0 34 0 3 115 3 116 78 -116 c74 -110 79 -115
112 -115 l35 0 0 165 0 165 -30 0 -30 0 0 -122 0 -122 -82 122 c-81 118 -84
121 -120 122 l-38 0 0 -165z"/>
<path d="M6430 695 l0 -165 30 0 30 0 0 165 0 165 -30 0 -30 0 0 -165z"/>
<path d="M6591 702 c-33 -87 -61 -161 -61 -165 0 -5 14 -7 32 -5 27 2 34 9 42
36 l9 33 71 -3 c70 -3 70 -3 80 -35 8 -29 13 -33 42 -33 19 0 34 3 34 7 0 4
-28 78 -61 165 l-62 158 -32 0 -32 0 -62 -158z m118 18 c12 -30 21 -58 21 -62
0 -5 -20 -8 -45 -8 -50 0 -53 7 -31 61 7 19 16 43 20 53 8 24 10 22 35 -44z"/>
<path d="M7100 835 c0 -23 4 -25 45 -25 l45 0 0 -140 0 -140 30 0 30 0 0 140
0 140 50 0 c47 0 50 2 50 25 l0 25 -125 0 -125 0 0 -25z"/>
<path d="M7380 695 l0 -165 105 0 105 0 0 25 c0 24 -2 25 -70 25 l-70 0 0 45
0 45 65 0 65 0 0 30 0 30 -65 0 -65 0 0 40 0 40 70 0 c68 0 70 1 70 25 l0 25
-105 0 -105 0 0 -165z"/>
<path d="M7970 695 l0 -165 30 0 29 0 3 116 3 116 79 -116 c75 -109 81 -116
113 -116 l33 0 0 165 0 165 -30 0 -30 0 0 -122 0 -123 -82 123 c-77 116 -83
122 -114 122 l-34 0 0 -165z"/>
<path d="M8710 695 l0 -165 90 0 c89 0 90 0 90 25 0 24 -3 25 -60 25 l-60 0 0
140 0 140 -30 0 -30 0 0 -165z"/>
<path d="M9660 695 l0 -165 30 0 30 0 0 165 0 165 -30 0 -30 0 0 -165z"/>
<path d="M9828 713 c-32 -82 -60 -156 -64 -165 -5 -15 0 -18 25 -18 27 0 34 5
47 35 14 35 14 35 80 35 65 0 65 0 80 -35 12 -30 19 -35 49 -35 l34 0 -14 33
c-7 17 -36 92 -65 165 -51 131 -52 132 -83 132 -32 0 -32 0 -89 -147z m127
-35 c7 -28 6 -28 -39 -28 -25 0 -46 4 -46 10 0 5 10 35 22 67 l21 58 18 -40
c10 -22 21 -52 24 -67z"/>
<path d="M6906 578 c-3 -7 -11 -35 -20 -62 -20 -62 -21 -58 11 -54 22 3 30 13
49 66 l24 62 -30 0 c-17 0 -32 -6 -34 -12z"/>
<path d="M3821 435 l-20 -35 24 0 c15 0 31 11 44 29 27 37 26 41 -3 41 -17 0
-30 -10 -45 -35z"/>
<path d="M10407 424 l-17 -35 26 3 c16 2 37 16 52 36 l25 32 -35 0 c-29 0 -37
-5 -51 -36z"/>
<path d="M2349 371 c-81 -26 -124 -92 -117 -181 7 -96 76 -159 174 -160 165
-1 237 225 101 318 -37 25 -116 36 -158 23z m132 -82 c25 -26 29 -39 29 -86 0
-47 -4 -59 -29 -84 -24 -23 -38 -29 -74 -29 -55 0 -92 27 -108 79 -24 80 27
151 108 151 37 0 50 -5 74 -31z"/>
<path d="M3290 358 c-61 -32 -83 -66 -88 -138 -5 -72 8 -109 54 -149 54 -48
159 -54 213 -12 20 15 22 21 12 39 -11 21 -13 21 -43 6 -79 -41 -164 -1 -175
83 -7 50 18 106 53 122 35 16 96 14 120 -4 26 -20 29 -19 42 10 11 25 10 27
-30 45 -57 26 -104 25 -158 -2z"/>
<path d="M3740 358 c-64 -33 -84 -66 -88 -146 -3 -57 0 -72 20 -102 45 -67
147 -98 221 -66 136 56 138 256 3 317 -55 25 -103 24 -156 -3z m139 -52 c65
-34 70 -148 7 -198 -35 -29 -100 -23 -138 11 -30 27 -33 35 -33 86 0 51 3 59
33 86 37 33 85 38 131 15z"/>
<path d="M5750 369 c-89 -36 -92 -137 -6 -179 23 -11 47 -20 53 -20 5 0 18 -9
28 -20 39 -43 -31 -68 -91 -31 l-31 19 -18 -30 c-20 -34 -17 -37 42 -64 96
-42 208 26 188 115 -8 36 -28 55 -85 77 -56 21 -75 38 -67 58 8 21 65 21 94 1
19 -14 22 -13 38 11 20 32 9 49 -44 64 -44 12 -68 12 -101 -1z"/>
<path d="M6946 370 c-16 -5 -44 -24 -63 -42 -83 -80 -61 -228 41 -277 145 -71
299 51 257 205 -25 91 -134 144 -235 114z m127 -84 c34 -32 44 -84 22 -129
-38 -81 -150 -73 -176 12 -14 48 -6 85 26 117 33 33 92 33 128 0z"/>
<path d="M8681 358 c-54 -28 -81 -62 -90 -114 -20 -116 43 -201 155 -210 76
-7 131 18 126 56 -4 37 -14 41 -60 24 -79 -32 -145 13 -145 97 0 35 6 48 32
71 36 32 76 36 122 12 36 -18 37 -17 45 23 8 38 -13 52 -89 60 -41 3 -61 0
-96 -19z"/>
<path d="M9351 358 c-54 -28 -81 -62 -90 -114 -15 -88 15 -154 89 -191 157
-81 314 72 241 233 -37 82 -154 117 -240 72z m151 -78 c28 -28 30 -35 26 -81
-6 -61 -30 -89 -84 -96 -96 -13 -148 118 -72 182 42 36 91 34 130 -5z"/>
<path d="M10069 370 c-46 -13 -78 -41 -99 -84 -75 -156 78 -309 237 -237 41
19 42 20 30 50 -8 22 -16 29 -27 25 -80 -35 -139 -25 -167 29 -19 38 -12 102
14 129 28 27 84 34 124 14 17 -9 33 -16 34 -16 2 0 8 14 15 31 15 35 9 42 -50
59 -40 11 -74 12 -111 0z"/>
<path d="M1030 205 l0 -165 105 0 105 0 0 25 c0 24 -2 25 -75 25 l-75 0 0 45
0 44 68 3 c65 3 67 4 70 31 l3 27 -70 0 -71 0 0 40 0 40 75 0 c73 0 75 1 75
25 l0 25 -105 0 -105 0 0 -165z"/>
<path d="M1390 205 l0 -165 30 0 30 0 0 165 0 165 -30 0 -30 0 0 -165z"/>
<path d="M1520 206 l0 -166 30 0 29 0 3 121 3 121 80 -119 c77 -112 82 -118
118 -121 l37 -3 0 165 0 166 -35 0 -35 0 0 -117 0 -116 -78 114 c-74 107 -81
114 -115 117 l-37 3 0 -165z"/>
<path d="M1880 205 l0 -165 36 0 37 0 -5 115 c-2 63 -2 115 2 115 3 0 40 -52
83 -115 74 -110 79 -115 112 -115 l35 0 0 165 0 165 -30 0 -30 0 0 -116 c0
-63 -4 -113 -8 -110 -5 3 -42 55 -83 115 -72 107 -75 110 -111 111 l-38 0 0
-165z"/>
<path d="M2590 363 c0 -4 26 -79 57 -165 58 -157 58 -158 88 -158 31 0 31 1
88 158 32 86 57 160 57 165 0 4 -13 7 -29 7 -27 0 -31 -5 -52 -67 -12 -38 -31
-93 -42 -123 l-20 -54 -42 119 c-41 116 -43 120 -74 123 -17 2 -31 0 -31 -5z"/>
<path d="M2938 223 c-31 -81 -60 -156 -64 -165 -5 -15 0 -18 25 -18 27 0 34 5
47 35 l14 35 69 0 c69 0 69 0 76 -31 8 -33 21 -42 58 -37 l24 3 -62 160 -62
160 -34 3 -34 3 -57 -148z m114 9 c26 -68 24 -72 -27 -72 -25 0 -45 4 -45 9 0
19 43 121 49 116 3 -3 13 -27 23 -53z"/>
<path d="M3530 205 l0 -165 35 0 35 0 0 165 0 165 -35 0 -35 0 0 -165z"/>
<path d="M4050 205 l0 -165 30 0 29 0 3 118 3 117 79 -117 c75 -111 82 -118
113 -118 l33 0 0 165 0 165 -30 0 -29 0 -3 -117 -3 -117 -79 117 c-75 110 -82
117 -113 117 l-33 0 0 -165z"/>
<path d="M4510 205 l0 -165 83 0 c137 0 197 50 197 163 0 116 -61 167 -200
167 l-80 0 0 -165z m188 81 c23 -22 27 -35 27 -81 0 -73 -30 -106 -104 -113
l-51 -5 0 118 0 118 51 -5 c38 -4 58 -12 77 -32z"/>
<path d="M4840 205 l0 -165 105 0 105 0 0 25 c0 24 -2 25 -70 25 l-70 0 0 45
0 45 65 0 65 0 0 30 0 30 -65 0 -65 0 0 40 0 40 70 0 c68 0 70 1 70 25 l0 25
-105 0 -105 0 0 -165z"/>
<path d="M5110 205 l0 -165 90 0 c89 0 90 0 90 25 0 24 -3 25 -60 25 l-60 0 0
140 0 140 -30 0 -30 0 0 -165z"/>
<path d="M5420 205 l0 -165 110 0 110 0 0 30 0 30 -70 0 -70 0 0 40 0 40 65 0
65 0 0 30 0 30 -65 0 -65 0 0 35 0 35 70 0 70 0 0 30 0 30 -110 0 -110 0 0
-165z"/>
<path d="M5930 340 c0 -28 2 -30 40 -30 l40 0 0 -135 0 -135 40 0 40 0 0 135
0 135 45 0 c43 0 45 1 45 30 l0 30 -125 0 -125 0 0 -30z"/>
<path d="M6266 362 c-7 -12 -116 -308 -116 -316 0 -3 18 -6 39 -6 34 0 40 4
50 30 10 29 12 30 69 30 57 0 60 -1 72 -30 11 -26 18 -30 51 -30 25 0 39 5 38
13 0 6 -26 80 -58 162 l-57 150 -41 3 c-23 2 -44 -1 -47 -6z m67 -144 l16 -48
-41 0 c-30 0 -39 3 -35 14 3 8 11 33 18 55 14 48 20 45 42 -21z"/>
<path d="M6510 205 l0 -165 88 0 c143 0 202 48 202 164 0 118 -59 166 -205
166 l-85 0 0 -165z m187 70 c32 -36 31 -104 0 -141 -19 -21 -33 -27 -68 -28
l-44 -1 -3 89 c-2 49 0 96 3 104 9 24 85 9 112 -23z"/>
<path d="M7330 205 l0 -167 99 4 c110 3 139 16 175 77 24 41 25 125 3 168 -31
60 -70 78 -179 81 l-98 4 0 -167z m188 71 c20 -19 25 -35 25 -71 0 -59 -31
-94 -91 -102 l-42 -6 0 108 0 108 42 -6 c25 -3 51 -15 66 -31z"/>
<path d="M7670 205 l0 -165 110 0 110 0 0 30 0 30 -70 0 -70 0 0 40 0 40 65 0
65 0 0 30 0 30 -65 0 -65 0 0 35 0 35 70 0 70 0 0 30 0 30 -110 0 -110 0 0
-165z"/>
<path d="M8049 363 c0 -5 -6 -79 -12 -165 l-13 -158 37 0 37 0 6 73 c4 39 7
90 9 112 2 36 6 28 37 -73 l35 -113 34 3 c34 3 34 4 66 103 36 112 43 109 47
-25 l3 -75 39 -3 39 -3 -7 93 c-3 51 -9 126 -13 166 l-6 73 -51 -3 -50 -3 -28
-90 c-15 -50 -31 -97 -34 -105 -3 -9 -21 31 -40 93 l-35 107 -49 0 c-28 0 -50
-3 -51 -7z"/>
<path d="M8460 205 l0 -165 40 0 40 0 0 165 0 165 -40 0 -40 0 0 -165z"/>
<path d="M8920 205 l0 -165 40 0 40 0 0 70 0 70 65 0 65 0 0 -70 0 -70 40 0
40 0 0 165 0 165 -40 0 -40 0 0 -65 0 -65 -65 0 -65 0 0 65 0 65 -40 0 -40 0
0 -165z"/>
<path d="M9737 363 c-9 -14 -117 -305 -117 -314 0 -5 17 -9 38 -9 33 0 39 4
49 30 11 29 14 30 71 30 57 0 60 -1 72 -30 11 -26 18 -30 51 -30 25 0 39 5 38
13 0 6 -26 80 -58 162 l-57 150 -41 3 c-23 2 -43 -1 -46 -5z m66 -145 l16 -48
-41 0 c-30 0 -39 3 -35 14 3 8 11 33 18 55 14 48 20 45 42 -21z"/>
<path d="M10377 363 c-9 -14 -117 -305 -117 -314 0 -5 17 -9 38 -9 33 0 39 4
49 30 11 29 14 30 71 30 57 0 60 -1 72 -30 11 -26 18 -30 51 -30 25 0 39 5 38
13 0 6 -26 80 -58 162 l-57 150 -41 3 c-23 2 -43 -1 -46 -5z m66 -145 l16 -48
-41 0 c-30 0 -39 3 -35 14 3 8 11 33 18 55 14 48 20 45 42 -21z"/>
<path d="M10620 205 l0 -165 35 0 35 0 0 113 1 112 72 -112 72 -113 43 0 42 0
0 165 0 165 -40 0 -39 0 -3 -105 -3 -106 -65 106 -65 105 -42 0 -43 0 0 -165z"/>
</g>
</svg>
