<?xml version="1.0" standalone="no"?>
<!DOCTYPE svg PUBLIC "-//W3C//DTD SVG 20010904//EN"
 "http://www.w3.org/TR/2001/REC-SVG-20010904/DTD/svg10.dtd">
<svg version="1.0" xmlns="http://www.w3.org/2000/svg"
 width="285.000000pt" height="141.000000pt" viewBox="0 0 285.000000 141.000000"
 preserveAspectRatio="xMidYMid meet">

<g transform="translate(0.000000,141.000000) scale(0.100000,-0.100000)"
fill="#000000" stroke="none">
<path d="M227 1283 c-2 -4 -10 -31 -17 -60 -11 -48 -14 -52 -53 -65 l-42 -13
-3 -67 -3 -68 68 0 c94 0 194 -23 281 -65 l75 -35 -7 32 c-3 17 -13 39 -21 48
-37 41 -175 99 -240 101 l-30 1 35 10 c57 16 152 0 230 -38 166 -83 260 -268
220 -433 l-12 -51 -38 6 c-61 10 -80 -7 -80 -72 0 -45 -4 -59 -25 -79 -13 -14
-30 -25 -37 -25 -7 -1 -22 -20 -33 -43 -32 -67 -69 -82 -195 -80 -65 1 -121 7
-148 17 -42 15 -42 15 -42 -9 0 -19 9 -27 45 -40 24 -10 46 -25 49 -34 2 -9 7
-29 11 -46 11 -50 21 -55 110 -55 91 0 99 4 110 60 12 62 15 68 47 74 26 5 37
0 69 -29 22 -19 43 -35 48 -35 13 0 141 99 141 110 0 4 -9 30 -20 56 -19 43
-19 49 -5 71 14 21 23 24 76 22 32 -1 61 0 63 2 7 8 46 141 46 159 0 10 -18
27 -45 41 -40 21 -45 28 -45 59 0 32 5 38 45 60 25 14 45 32 45 40 0 21 -40
142 -52 157 -6 7 -28 10 -63 6 -49 -5 -57 -3 -74 18 -18 23 -18 24 0 67 11 24
19 51 19 60 0 9 -32 39 -70 65 l-70 48 -44 -35 c-69 -57 -102 -47 -120 35
l-12 54 -91 3 c-50 1 -93 -1 -96 -5z"/>
<path d="M110 985 c0 -10 10 -15 30 -15 17 0 65 -7 107 -16 53 -11 79 -12 86
-5 15 15 7 20 -54 30 -120 20 -169 22 -169 6z"/>
<path d="M543 948 c4 -12 7 -42 7 -64 0 -35 4 -43 23 -48 43 -10 79 -46 74
-72 -2 -13 -1 -24 2 -24 18 0 31 29 31 70 0 55 -39 109 -102 141 l-41 21 6
-24z"/>
<path d="M110 946 c0 -10 19 -18 58 -26 31 -6 70 -15 86 -21 41 -13 46 -12 46
10 0 16 -12 21 -72 31 -40 6 -83 13 -95 16 -16 3 -23 0 -23 -10z"/>
<path d="M366 947 c-36 -26 4 -84 42 -61 23 15 26 38 7 58 -20 19 -26 20 -49
3z m45 -20 c-1 -12 -15 -9 -19 4 -3 6 1 10 8 8 6 -3 11 -8 11 -12z"/>
<path d="M321 899 c-2 -49 16 -59 117 -63 70 -3 92 0 92 9 0 8 3 20 6 28 3 10
-8 19 -36 31 -49 19 -50 19 -50 3 0 -21 -34 -47 -62 -47 -25 0 -50 21 -61 50
-3 9 -6 5 -6 -11z"/>
<path d="M110 893 c0 -16 14 -24 73 -41 142 -41 169 -40 128 5 -13 14 -43 25
-88 32 -37 7 -78 15 -90 18 -18 4 -23 1 -23 -14z"/>
<path d="M1560 870 c-12 -12 -20 -33 -20 -53 0 -59 46 -97 78 -65 19 19 14 30
-8 23 -26 -8 -50 11 -50 40 0 29 24 48 50 40 26 -8 26 11 1 25 -26 13 -28 13
-51 -10z"/>
<path d="M1771 864 c-27 -34 -27 -78 -1 -104 31 -31 57 -25 79 17 17 34 13 62
-14 88 -31 31 -39 31 -64 -1z m59 -56 c0 -36 -27 -49 -46 -23 -18 25 -18 40 2
60 22 21 44 3 44 -37z"/>
<path d="M1960 870 c-37 -37 -16 -130 29 -130 52 0 75 96 32 131 -29 24 -36
24 -61 -1z m53 -32 c14 -22 0 -70 -20 -66 -27 5 -38 33 -25 63 13 28 29 29 45
3z"/>
<path d="M2080 870 c-12 -12 -20 -33 -20 -55 0 -33 27 -75 49 -75 28 0 41 14
41 46 0 27 -4 34 -20 34 -21 0 -27 -15 -10 -25 15 -9 12 -25 -5 -25 -24 0 -39
38 -26 67 9 20 16 24 36 19 28 -7 36 18 9 28 -25 9 -33 7 -54 -14z"/>
<path d="M2240 870 c-40 -40 -11 -137 38 -128 26 5 27 35 1 34 -31 -1 -46 26
-31 59 9 20 18 26 32 22 24 -6 28 18 4 27 -22 8 -22 8 -44 -14z"/>
<path d="M2339 871 c-43 -35 -20 -131 32 -131 45 0 66 93 29 130 -25 25 -32
25 -61 1z m53 -35 c12 -29 5 -54 -18 -63 -29 -11 -47 50 -22 75 18 18 27 15
40 -12z"/>
<path d="M1350 865 c0 -8 7 -15 15 -15 11 0 15 -12 15 -50 0 -38 4 -50 15 -50
11 0 15 12 15 50 0 38 4 50 15 50 8 0 15 7 15 15 0 11 -12 15 -45 15 -33 0
-45 -4 -45 -15z"/>
<path d="M1460 815 l0 -65 30 0 c17 0 30 5 30 10 0 6 -9 10 -20 10 -25 0 -26
25 -2 35 16 6 16 7 -2 20 -20 15 -12 40 10 31 8 -3 14 1 14 9 0 10 -10 15 -30
15 l-30 0 0 -65z"/>
<path d="M1640 818 c0 -54 3 -68 15 -68 10 0 15 10 15 33 l1 32 29 -35 29 -35
1 68 c0 38 -4 67 -10 67 -5 0 -10 -16 -10 -37 l0 -36 -35 39 -34 39 -1 -67z"/>
<path d="M1870 815 l0 -65 35 0 c39 0 48 17 13 22 -20 3 -23 10 -26 56 -4 75
-22 65 -22 -13z"/>
<path d="M2180 815 c0 -37 4 -65 10 -65 6 0 10 28 10 65 0 37 -4 65 -10 65 -6
0 -10 -28 -10 -65z"/>
<path d="M110 815 l0 -35 83 6 c100 8 128 19 72 29 -22 4 -62 13 -89 21 -67
19 -66 19 -66 -21z"/>
<path d="M537 809 c-3 -12 -14 -19 -29 -19 -22 -1 -22 -1 -5 -14 14 -11 15
-16 6 -22 -7 -4 -15 -2 -17 4 -12 36 -62 -19 -62 -68 0 -21 41 -70 59 -70 16
0 42 31 35 41 -3 6 4 13 16 16 22 6 23 22 5 81 -6 16 -3 22 9 22 20 0 22 36 2
43 -8 3 -16 -2 -19 -14z"/>
<path d="M330 808 c-24 -10 -23 -11 20 -19 25 -5 50 -15 56 -24 9 -12 14 -11
34 10 13 14 29 25 36 25 7 0 16 5 19 10 8 14 -133 12 -165 -2z"/>
<path d="M110 751 c0 -16 11 -19 88 -24 48 -4 97 -9 108 -13 18 -5 22 -1 26
25 l5 31 -114 0 c-103 0 -113 -2 -113 -19z"/>
<path d="M346 751 c-11 -18 6 -42 28 -39 29 4 29 42 -1 46 -11 2 -24 -1 -27
-7z m36 -16 c0 -5 -5 -10 -11 -11 -8 -2 -7 -1 0 3 8 4 7 8 -2 15 -11 8 -11 9
-1 6 8 -2 14 -8 14 -13z"/>
<path d="M110 674 c0 -20 3 -34 8 -32 34 15 112 59 112 63 0 3 -27 5 -60 5
l-60 0 0 -36z"/>
<path d="M187 660 c-84 -54 -95 -73 -81 -143 l9 -42 49 79 c27 44 63 94 79
113 16 18 28 36 25 38 -2 2 -39 -18 -81 -45z"/>
<path d="M392 693 c-13 -24 -16 -45 -4 -26 5 9 12 6 21 -10 13 -20 13 -21 -2
-8 -32 26 -17 -8 18 -44 29 -28 43 -35 75 -35 21 0 42 5 45 10 3 6 -3 10 -14
10 -11 0 -23 5 -26 10 -3 6 -19 10 -35 10 -27 0 -41 11 -47 35 -1 6 -6 24 -11
40 -8 29 -9 30 -20 8z"/>
<path d="M237 623 c-68 -95 -139 -235 -132 -255 9 -22 49 -38 95 -38 38 0 40
2 40 31 0 57 32 233 51 284 22 59 22 55 9 55 -5 0 -34 -34 -63 -77z"/>
<path d="M310 653 c-16 -52 -35 -282 -27 -315 7 -25 12 -28 50 -28 55 1 124
32 139 65 10 23 8 28 -29 60 -53 45 -80 103 -88 185 l-5 65 18 -67 c22 -81 66
-145 117 -172 l38 -20 24 28 c15 17 23 40 23 62 0 34 -1 35 -29 29 -57 -12
-153 54 -166 116 -5 22 -12 29 -30 29 -19 0 -26 -8 -35 -37z"/>
<path d="M1020 603 c0 -42 4 -73 10 -73 6 0 10 16 10 35 0 19 2 35 5 35 3 0
20 -17 40 -37 l34 -38 1 73 c0 57 -3 72 -15 72 -11 0 -15 -11 -15 -37 l-1 -38
-34 40 -35 40 0 -72z"/>
<path d="M1156 605 c-26 -66 -28 -91 -4 -67 15 15 55 16 60 1 2 -7 9 -10 14
-8 6 2 0 32 -16 73 l-27 69 -27 -68z m30 -32 c-11 -11 -19 6 -11 24 8 17 8 17
12 0 3 -10 2 -21 -1 -24z"/>
<path d="M1263 662 c-18 -12 -32 -57 -26 -83 7 -30 30 -49 60 -49 33 0 29 28
-4 32 -25 3 -28 7 -28 38 0 32 3 35 28 35 20 -1 27 4 25 15 -4 17 -36 24 -55
12z"/>
<path d="M1350 600 c0 -40 4 -70 10 -70 6 0 10 30 10 70 0 40 -4 70 -10 70 -6
0 -10 -30 -10 -70z"/>
<path d="M1406 648 c-32 -46 -8 -118 39 -118 28 0 55 34 55 70 0 36 -27 70
-55 70 -13 0 -31 -10 -39 -22z m67 -28 c9 -35 -3 -61 -27 -58 -21 3 -33 36
-22 64 8 21 43 17 49 -6z"/>
<path d="M1590 633 l0 -37 -35 34 -35 34 0 -67 c0 -38 4 -67 10 -67 6 0 10 17
10 38 l1 37 34 -39 35 -39 0 71 c0 41 -4 72 -10 72 -5 0 -10 -17 -10 -37z"/>
<path d="M1747 663 c-4 -3 -7 -35 -7 -70 l0 -63 35 0 c24 0 35 5 35 15 0 8 -9
15 -20 15 -18 0 -20 7 -20 55 0 51 -7 65 -23 48z"/>
<path d="M1890 600 c0 -77 8 -84 64 -59 45 21 45 97 0 118 -56 25 -64 18 -64
-59z m65 0 c0 -25 -5 -36 -17 -38 -15 -3 -18 4 -18 38 0 34 3 41 18 38 12 -2
17 -13 17 -38z"/>
<path d="M2010 600 l0 -70 30 0 c20 0 30 5 30 15 0 8 -9 15 -20 15 -11 0 -20
7 -20 15 0 8 7 15 15 15 8 0 15 5 15 10 0 6 -7 10 -15 10 -8 0 -15 7 -15 15 0
8 9 15 20 15 11 0 20 7 20 15 0 10 -10 15 -30 15 l-30 0 0 -70z"/>
<path d="M2557 652 c-21 -23 -22 -95 -3 -111 18 -15 68 -10 74 7 2 8 -7 12
-27 12 -36 0 -46 17 -37 56 6 23 11 26 36 20 32 -6 38 2 18 22 -17 17 -42 15
-61 -6z"/>
<path d="M2656 648 c-34 -48 -9 -118 42 -118 47 0 69 83 32 120 -26 26 -55 25
-74 -2z m59 -48 c0 -28 -4 -36 -22 -38 -26 -4 -39 28 -23 58 18 33 45 21 45
-20z"/>
<path d="M1648 598 c-17 -41 -22 -64 -15 -67 6 -2 13 1 15 8 5 15 45 14 60 -1
22 -22 23 -1 2 53 -12 30 -25 57 -29 62 -4 4 -19 -21 -33 -55z m42 -20 c0 -5
-7 -8 -15 -8 -17 0 -18 2 -9 25 5 13 8 14 15 3 5 -7 9 -16 9 -20z"/>
<path d="M2154 594 c-7 -45 -7 -63 0 -61 6 2 14 17 17 33 l5 29 16 -35 15 -35
15 30 16 30 7 -27 c13 -51 27 -30 20 30 -9 72 -18 81 -34 37 -15 -43 -25 -44
-41 -5 -20 48 -26 44 -36 -26z"/>
<path d="M2290 595 l0 -65 30 0 c20 0 30 5 30 15 0 8 -9 15 -20 15 -11 0 -20
7 -20 15 0 8 7 15 15 15 8 0 15 5 15 10 0 6 -7 10 -15 10 -8 0 -15 7 -15 15 0
8 9 15 20 15 11 0 20 5 20 10 0 6 -13 10 -30 10 l-30 0 0 -65z"/>
<path d="M2395 631 c14 -28 13 -33 -6 -65 -17 -30 -18 -36 -6 -36 9 0 19 9 22
20 3 11 9 20 13 20 4 0 13 -9 20 -20 7 -11 19 -20 28 -20 13 0 12 6 -7 37 -21
34 -22 38 -6 65 13 23 14 28 2 28 -8 0 -18 -7 -23 -16 -8 -14 -10 -14 -21 0
-22 27 -32 18 -16 -13z"/>
<path d="M2500 595 c0 -37 4 -65 10 -65 6 0 10 28 10 65 0 37 -4 65 -10 65 -6
0 -10 -28 -10 -65z"/>
</g>
</svg>
